# xmcd
#
# Track frame offsets:
#	150
#	12855
#	26558
#	44396
#	60221
#	75529
#	90773
#	105520
#	121927
#	141469
#	156762
#	174303
#	187019
#	209398
#	233183
#	245544
#	266040
#	280580
#
# Disc length: 3997 seconds
# Revision: 0
# Processed by: cddbd v1.5.2PL0 Copyright (c) Steve Scherf et al.
# Submitted via: dBpowerAMP V12.0
#
DISCID=e50f9b12
DTITLE=Bret Michaels - Freedom of Sound, Vol. 1: A Collection of Songs, Past and Present
DYEAR=2006
DGENRE=Country
TTITLE0=Rock'n My Country
TTITLE1=Driven
TTITLE2=Open Road
TTITLE3=All I Ever Needed
TTITLE4=New Breed of American Cowboy
TTITLE5=Right Now, Right Here
TTITLE6=Lookin' for a Good Time
TTITLE7=It's All Good
TTITLE8=Every Rose "Country Version"
TTITLE9=Bittersweet (Songs of Life)
TTITLE10=Raine w/Edwin McCain (Songs of Life)
TTITLE11=Menace to Society (Songs of Life)
TTITLE12=Walk Away (Ballads, Blues and Stories)
TTITLE13=Something to Believe In (Ballads, Blues and Stories)
TTITLE14=Future Ex-Wife (Country Demos)
TTITLE15=The One You Get (Country Demos)
TTITLE16=Human Zoo (A Letter from Death Row)
TTITLE17=Last Breath (A Letter from Death Row)
EXTD=
EXTT0=
EXTT1=
EXTT2=
EXTT3=
EXTT4=
EXTT5=
EXTT6=
EXTT7=
EXTT8=
EXTT9=
EXTT10=
EXTT11=
EXTT12=
EXTT13=
EXTT14=
EXTT15=
EXTT16=
EXTT17=
PLAYORDER=
